<?xml version="1.0" standalone="no"?>
<!DOCTYPE svg PUBLIC "-//W3C//DTD SVG 20010904//EN"
 "http://www.w3.org/TR/2001/REC-SVG-20010904/DTD/svg10.dtd">
<svg version="1.0" xmlns="http://www.w3.org/2000/svg"
 width="512.000000pt" height="512.000000pt" viewBox="0 0 512.000000 512.000000"
 preserveAspectRatio="xMidYMid meet">
<metadata>
Created by potrace 1.14, written by Peter Selinger 2001-2017
</metadata>
<g transform="translate(0.000000,512.000000) scale(0.100000,-0.100000)"
fill="#000000" stroke="none">
<path d="M2165 5113 c-593 -64 -1100 -350 -1454 -820 -215 -287 -363 -650
-396 -973 -3 -30 -8 -65 -11 -78 -6 -31 -6 -303 1 -372 29 -296 133 -609 289
-870 47 -80 145 -216 219 -305 l33 -40 -82 -81 -82 -82 -37 34 c-20 18 -46 36
-57 39 -50 16 -113 -49 -92 -95 18 -39 232 -247 354 -345 233 -186 497 -328
780 -420 l55 -18 -50 -12 c-132 -29 -252 -139 -287 -260 -16 -55 -15 -52 -17
-80 l-1 -25 -170 0 c-183 0 -223 -8 -262 -53 -32 -35 -40 -66 -42 -164 l-2
-93 1504 0 1504 0 -4 104 c-3 113 -13 136 -72 180 -25 19 -44 21 -211 24
l-183 3 -11 57 c-29 146 -154 278 -291 307 -32 7 -28 10 85 50 152 54 176 65
310 132 303 153 556 360 813 667 63 75 175 248 247 382 68 126 174 400 199
515 64 288 71 351 71 619 0 228 -8 311 -50 520 -3 14 -7 34 -9 46 -2 12 -14
54 -26 95 -97 332 -241 609 -451 869 -85 105 -279 307 -320 334 -40 26 -90 11
-109 -33 -14 -34 -3 -65 39 -107 l31 -31 -82 -82 -81 -82 -41 39 c-23 22 -78
67 -123 100 -302 221 -657 363 -1008 401 -76 8 -356 11 -420 4z m1957 -596
c149 -177 257 -349 345 -547 75 -170 136 -362 158 -500 3 -19 8 -46 10 -60 3
-14 8 -36 10 -50 24 -126 24 -525 0 -650 -3 -14 -10 -52 -16 -85 -178 -1011
-1049 -1798 -2069 -1872 -345 -25 -661 18 -977 132 -259 94 -553 273 -745 454
l-48 44 77 79 c43 43 82 78 88 78 6 0 33 -19 60 -43 239 -208 568 -374 885
-446 294 -67 646 -65 945 5 100 24 295 94 400 144 548 262 962 765 1110 1348
48 191 59 283 59 512 0 229 -11 321 -59 510 -78 306 -254 640 -451 853 l-37
39 79 78 c43 43 83 76 89 73 5 -2 45 -46 87 -96z"/>
</g>
</svg>
